# xmcd
#
# Track frame offsets:
#	150
#	12645
#	24863
#	38824
#	51944
#	65208
#	77913
#	91846
#	104665
#	115613
#
# Disc length: 1709 seconds
# Revision: 0
# Processed by: cddbd v1.5.2PL0 Copyright (c) Steve Scherf et al.
# Submitted via: dBpowerAMP V12.0
#
DISCID=7f06ab0a
DTITLE=Sonny James - This is the Love [Columbia] (L)
DYEAR=1978
DGENRE=Classical
TTITLE0=This Is The Love
TTITLE1=No Sand In A Sand Dune
TTITLE2=Dear Mrs Brown
TTITLE3=Caribbean
TTITLE4=Beg Steal Or Borrow
TTITLE5=Each Time I Look At You
TTITLE6=Love
TTITLE7=All Burned Out Inside
TTITLE8=It'll Still Be Worth It All
TTITLE9=When Was The Last Time
EXTD=
EXTT0=
EXTT1=
EXTT2=
EXTT3=
EXTT4=
EXTT5=
EXTT6=
EXTT7=
EXTT8=
EXTT9=
PLAYORDER=
